HIERARCHY
ROOT Hips
{
 OFFSET 0.000000 0.000000 0.000000
 CHANNELS 6 Xposition Yposition Zposition Yrotation Xrotation Zrotation
 JOINT Chest
 {
  OFFSET 0.000000 12.953391 -0.028419
  CHANNELS 3 Yrotation Xrotation Zrotation
  JOINT Chest2
  {
   OFFSET 0.000000 10.280254 0.051622
   CHANNELS 3 Yrotation Xrotation Zrotation
   JOINT Chest3
   {
    OFFSET 0.000000 9.287180 0.000000
    CHANNELS 3 Yrotation Xrotation Zrotation
    JOINT Chest4
    {
     OFFSET 0.000000 9.287180 0.000000
     CHANNELS 3 Yrotation Xrotation Zrotation
     JOINT Neck
     {
      OFFSET 0.000000 13.296264 0.000000
      CHANNELS 3 Yrotation Xrotation Zrotation
      JOINT Head
      {
       OFFSET 0.000000 8.959264 0.099003
       CHANNELS 3 Yrotation Xrotation Zrotation
       End Site
       {
        OFFSET 0.000000 17.121337 0.039303
       }
      }
     }
     JOINT RightCollar
     {
      OFFSET -3.193511 7.451388 0.000000
      CHANNELS 3 Yrotation Xrotation Zrotation
      JOINT RightShoulder
      {
       OFFSET -15.792092 0.000000 0.000000
       CHANNELS 3 Yrotation Xrotation Zrotation
       JOINT RightElbow
       {
        OFFSET -31.151839 0.000000 0.000000
        CHANNELS 3 Yrotation Xrotation Zrotation
        JOINT RightWrist
        {
         OFFSET -25.536298 0.000000 0.002321
         CHANNELS 3 Yrotation Xrotation Zrotation
         End Site
         {
          OFFSET -19.133213 0.000000 0.000000
         }
        }
       }
      }
     }
     JOINT LeftCollar
     {
      OFFSET 3.193511 7.451388 0.000000
      CHANNELS 3 Yrotation Xrotation Zrotation
      JOINT LeftShoulder
      {
       OFFSET 15.792092 0.000000 0.000000
       CHANNELS 3 Yrotation Xrotation Zrotation
       JOINT LeftElbow
       {
        OFFSET 31.151839 0.000000 0.000000
        CHANNELS 3 Yrotation Xrotation Zrotation
        JOINT LeftWrist
        {
         OFFSET 25.536298 0.000000 0.002321
         CHANNELS 3 Yrotation Xrotation Zrotation
         End Site
         {
          OFFSET 19.133213 0.000000 0.000000
         }
        }
       }
      }
     }
    }
   }
  }
 }
 JOINT RightHip
 {
  OFFSET -10.745749 0.139252 0.014209
  CHANNELS 3 Yrotation Xrotation Zrotation
  JOINT RightKnee
  {
   OFFSET 0.000000 -43.743899 -0.006071
   CHANNELS 3 Yrotation Xrotation Zrotation
   JOINT RightAnkle
   {
    OFFSET 0.000000 -43.214199 0.089931
    CHANNELS 3 Yrotation Xrotation Zrotation
    JOINT RightToe
    {
     OFFSET 0.000000 -9.699830 19.151588
     CHANNELS 3 Yrotation Xrotation Zrotation
     End Site
     {
      OFFSET 0.000000 -1.292898 4.893873
     }
    }
   }
  }
 }
 JOINT LeftHip
 {
  OFFSET 10.745749 0.139252 0.014209
  CHANNELS 3 Yrotation Xrotation Zrotation
  JOINT LeftKnee
  {
   OFFSET 0.000000 -43.743899 -0.006071
   CHANNELS 3 Yrotation Xrotation Zrotation
   JOINT LeftAnkle
   {
    OFFSET 0.000000 -43.214199 0.089931
    CHANNELS 3 Yrotation Xrotation Zrotation
    JOINT LeftToe
    {
     OFFSET 0.000000 -9.699830 19.151588
     CHANNELS 3 Yrotation Xrotation Zrotation
     End Site
     {
      OFFSET 0.000000 -1.292898 4.893873
     }
    }
   }
  }
 }
}
MOTION
Frames: 14
Frame Time: 0.016667
18.898484 98.967271 137.643050 61.122441 -8.584655 1.099883 0.128158 8.480299 6.555179 -0.063333 3.770562 2.902838 -0.063333 3.770562 2.902838 -0.065417 2.827696 2.176733 -7.700833 29.625774 2.146085 -14.048796 19.358278 5.172621 12.712260 7.915359 5.198611 9.323709 -24.531838 70.993888 -0.114963 42.066619 -6.438129 -6.989491 18.249589 -52.156108 1.322512 -0.832647 -12.228391 -6.103047 2.972802 -73.765024 -26.694116 42.961636 -13.825013 4.227836 13.203940 0.193228 -2.455842 8.933951 -0.369804 -1.246422 4.470132 -0.867787 -5.132871 -3.441701 1.085696 0.000000 -0.000000 0.000000 1.266360 5.020810 3.583795 -2.467138 9.106949 0.063199 -7.981720 -1.701769 -4.302007 0.000000 0.000000 0.000000
18.666558 98.978994 137.479355 61.523424 -8.435175 1.196275 0.091240 8.473649 6.519244 -0.078936 3.767079 2.887599 -0.078934 3.767077 2.887597 -0.077001 2.825009 2.165403 -7.698066 29.576804 2.171804 -14.050454 19.270692 5.222532 12.668181 7.905271 5.272315 9.262077 -24.598306 70.888157 -0.013808 41.961819 -6.465797 -7.012965 18.283838 -52.226394 1.210511 -0.767276 -12.120166 -6.143790 2.826073 -73.803282 -26.767759 42.919253 -13.845994 4.292997 13.240026 0.151493 -2.649749 8.701136 -0.466356 -1.565050 4.335774 -0.898993 -5.058707 -3.206924 0.919202 0.000000 -0.000000 0.000000 1.274326 4.574364 3.395375 -3.036704 9.113094 0.256701 -7.844978 -1.564339 -4.508874 0.000000 0.000000 0.000000
18.434632 98.990717 137.315660 61.924508 -8.286367 1.293685 0.054253 8.467135 6.483357 -0.094583 3.763669 2.872390 -0.094584 3.763670 2.872390 -0.088627 2.822382 2.154101 -7.695413 29.527733 2.197268 -14.052509 19.182999 5.272116 12.624408 7.894856 5.346191 9.200199 -24.664676 70.782626 0.087181 41.857110 -6.493814 -7.036547 18.318088 -52.296692 1.099091 -0.702182 -12.011304 -6.184484 2.679438 -73.841859 -26.841479 42.876816 -13.867242 4.358378 13.276154 0.110108 -2.842975 8.468192 -0.563151 -1.883528 4.201243 -0.930345 -4.984710 -2.972205 0.752866 0.000000 0.000000 0.000000 1.284248 4.129314 3.203867 -3.607591 9.120217 0.447326 -7.708367 -1.426480 -4.715199 0.000000 0.000000 0.000000
18.194966 99.003200 137.131109 62.362405 -8.102521 1.404089 0.012001 8.453092 6.446605 -0.112437 3.756843 2.856902 -0.112437 3.756843 2.856902 -0.101885 2.817180 2.142600 -7.696711 29.469118 2.219940 -14.061431 19.077676 5.318373 12.579961 7.896933 5.409004 9.148997 -24.726708 70.661812 0.251238 41.675589 -6.499446 -7.051369 18.357980 -52.347079 0.995561 -0.628537 -11.909993 -6.228259 2.529606 -73.883702 -26.908651 42.880923 -13.866159 4.420584 13.343558 0.080302 -3.021770 8.194663 -0.689565 -2.213777 4.062132 -0.942684 -4.942992 -2.739579 0.611918 0.000000 0.000000 0.000000 1.354568 3.634478 3.004292 -4.177625 9.151171 0.578348 -7.673290 -1.330025 -4.854113 0.000000 0.000000 0.000000
17.944183 99.009277 136.921333 62.848524 -7.863404 1.524088 -0.038868 8.425419 6.412690 -0.133974 3.743844 2.842847 -0.133974 3.743842 2.842845 -0.117885 2.807329 2.132195 -7.704310 29.398368 2.236109 -14.080967 18.949740 5.355463 12.534112 7.922606 5.453698 9.126159 -24.789365 70.519609 0.477267 41.394147 -6.474365 -7.047124 18.380145 -52.377351 0.907345 -0.541429 -11.818658 -6.268702 2.374983 -73.932496 -26.966874 42.961181 -13.831270 4.480461 13.458721 0.074656 -3.172251 7.860371 -0.848917 -2.558868 3.917099 -0.922060 -4.949713 -2.518013 0.507249 0.000000 0.000000 0.000000 1.472866 3.067497 2.794834 -4.787492 9.207307 0.609455 -7.753257 -1.273033 -4.895355 0.000000 0.000000 0.000000
17.685660 99.016114 136.690700 63.371651 -7.589777 1.658505 -0.094963 8.390175 6.377842 -0.157717 3.727421 2.828484 -0.157719 3.727419 2.828483 -0.135525 2.794905 2.121576 -7.715990 29.318124 2.249297 -14.107764 18.804313 5.389020 12.487516 7.960870 5.487648 9.113517 -24.847270 70.362097 0.765144 41.035990 -6.429063 -7.034007 18.407981 -52.387632 0.827037 -0.445877 -11.734622 -6.312360 2.217316 -73.984819 -27.018539 43.087739 -13.773489 4.537228 13.605055 0.081036 -3.307735 7.486484 -1.039360 -2.916217 3.767952 -0.882910 -4.988546 -2.298496 0.427620 0.000000 0.000000 0.000000 1.652687 2.452628 2.572177 -5.395561 9.286571 0.580768 -7.934696 -1.257739 -4.870467 0.000000 0.000000 0.000000
17.421780 99.045970 136.431455 63.934787 -7.308031 1.831910 -0.151457 8.358094 6.329953 -0.181443 3.712409 2.808335 -0.181443 3.712409 2.808335 -0.153119 2.783543 2.106617 -7.728809 29.226737 2.267654 -14.137913 18.638994 5.433026 12.441342 7.991328 5.521267 9.067653 -24.880719 70.192731 1.178099 40.593739 -6.371285 -7.033879 18.517187 -52.358297 0.739710 -0.347988 -11.658191 -6.381828 2.058278 -74.032771 -27.064365 43.217996 -13.703943 4.585057 13.764302 0.073585 -3.454707 7.094891 -1.282564 -3.289295 3.615191 -0.848797 -5.042758 -2.056072 0.364980 0.000000 0.000000 0.000000 1.992229 1.811018 2.324782 -5.875933 9.406035 0.557773 -8.278244 -1.332667 -4.806021 0.000000 0.000000 0.000000
17.151962 99.114492 136.137026 64.560637 -7.019156 2.066281 -0.216571 8.331463 6.260930 -0.208684 3.699712 2.778945 -0.208678 3.699705 2.778939 -0.173299 2.773895 2.084740 -7.742223 29.119949 2.293911 -14.171349 18.446335 5.492722 12.393842 7.998286 5.561285 8.972845 -24.882160 70.000240 1.749040 40.022917 -6.303314 -7.009491 18.771950 -52.179535 0.633355 -0.247910 -11.590163 -6.500205 1.895059 -74.076372 -27.089622 43.344531 -13.611359 4.618976 13.942077 0.039211 -3.609890 6.686767 -1.597399 -3.706053 3.454355 -0.830735 -5.114714 -1.778352 0.319301 -0.000000 0.000000 0.000000 2.532821 1.127355 2.028722 -6.279811 9.553670 0.575218 -9.074769 -1.514906 -4.783720 0.000000 -0.000000 0.000000
16.876787 99.206032 135.813984 65.227174 -6.724079 2.340511 -0.282322 8.308399 6.178956 -0.236042 3.688628 2.743817 -0.236038 3.688616 2.743808 -0.193550 2.765462 2.058565 -7.756974 29.001880 2.324874 -14.208886 18.233695 5.562262 12.346853 7.997301 5.600851 8.843243 -24.859214 69.797623 2.439476 39.367796 -6.231192 -6.997211 19.107205 -51.959591 0.519919 -0.145477 -11.529155 -6.644464 1.730423 -74.114881 -27.108762 43.474533 -13.506578 4.644151 14.133005 -0.008790 -3.775097 6.262409 -1.965817 -4.138581 3.290249 -0.818103 -5.201768 -1.477633 0.290315 0.000000 -0.000000 0.000000 3.236311 0.425644 1.695815 -6.555579 9.740495 0.603338 -10.034057 -1.786433 -4.724522 -0.000000 -0.000000 0.000000
16.600377 99.295902 135.474290 65.870074 -6.448411 2.613330 -0.319654 8.293631 6.096202 -0.250917 3.681653 2.707838 -0.250917 3.681653 2.707838 -0.204460 2.760193 2.031693 -7.772044 28.883385 2.359831 -14.247875 18.020797 5.639009 12.306898 8.014908 5.630032 8.680346 -24.815190 69.625261 3.206365 38.754421 -6.167531 -7.130125 19.407057 -52.008670 0.420429 -0.046316 -11.472377 -6.767960 1.574338 -74.139714 -27.167163 43.587662 -13.435215 4.669924 14.302364 -0.057149 -3.984587 5.840869 -2.352074 -4.506395 3.137071 -0.801709 -5.279702 -1.166019 0.269864 0.000000 0.000000 0.000000 4.079766 -0.215002 1.370793 -6.422075 10.018931 0.618921 -10.348069 -2.147604 -4.416686 0.000000 -0.000000 0.000000
16.323854 99.378660 135.119755 66.460908 -6.199597 2.880426 -0.309560 8.294224 6.017288 -0.245044 3.682124 2.672693 -0.245048 3.682135 2.672703 -0.199853 2.760601 2.005322 -7.790214 28.765069 2.400327 -14.293403 17.809220 5.726136 12.282215 8.069372 5.642566 8.470525 -24.749190 69.504541 4.054241 38.200161 -6.131189 -7.611899 19.596081 -52.477080 0.340702 0.052273 -11.423310 -6.887008 1.422728 -74.143870 -27.284344 43.661341 -13.412185 4.697268 14.442822 -0.104720 -4.245454 5.423784 -2.750739 -4.789458 2.999748 -0.784004 -5.332399 -0.841703 0.254707 -0.000000 0.000000 0.000000 5.058156 -0.775666 1.045984 -5.932761 10.423783 0.610967 -9.630105 -2.663600 -3.679324 0.000000 0.000000 0.000000
16.046097 99.459747 134.748569 67.027906 -5.969592 3.145022 -0.271216 8.303714 5.937378 -0.226739 3.686881 2.636570 -0.226744 3.686888 2.636577 -0.185931 2.764253 1.978125 -7.808833 28.646185 2.444600 -14.340773 17.597327 5.820210 12.264345 8.142763 5.645261 8.227225 -24.662277 69.415722 4.977203 37.688933 -6.106985 -8.240670 19.748351 -53.218359 0.274857 0.147618 -11.378535 -6.985261 1.279482 -74.135160 -27.441925 43.718339 -13.424516 4.725363 14.561640 -0.152940 -4.550133 5.007455 -3.164850 -5.007862 2.873172 -0.762214 -5.375818 -0.506512 0.248304 -0.000000 0.000000 -0.000000 6.174560 -1.272377 0.730060 -5.030235 10.922860 0.615051 -8.275893 -3.346359 -2.738679 0.000000 0.000000 -0.000000
15.767859 99.530802 134.367258 67.591132 -5.759298 3.376443 -0.232635 8.306332 5.854278 -0.208173 3.688575 2.599032 -0.208173 3.688575 2.599032 -0.171785 2.765606 1.949858 -7.818745 28.535653 2.487210 -14.372301 17.399937 5.908966 12.234803 8.207357 5.647721 7.993583 -24.560396 69.336191 5.919252 37.295275 -6.051324 -8.544124 19.979897 -54.097029 0.226522 0.225933 -11.325636 -6.967146 1.166470 -74.128885 -27.628958 43.806586 -13.476673 4.760758 14.645804 -0.192626 -4.911918 4.601331 -3.569901 -5.141464 2.756163 -0.718955 -5.434054 -0.178024 0.252590 0.000000 0.000000 -0.000000 7.414467 -1.686383 0.498724 -3.264645 11.468211 0.690821 -6.646542 -4.104717 -2.001697 0.000000 0.000000 0.000000
15.486490 99.590858 133.974141 68.139426 -5.561780 3.571117 -0.195627 8.298427 5.765644 -0.190081 3.685580 2.559098 -0.190081 3.685586 2.559102 -0.157966 2.763456 1.919814 -7.816182 28.435230 2.526105 -14.380464 17.219338 5.987838 12.187424 8.258374 5.648121 7.791003 -24.445657 69.252323 6.866862 36.998001 -5.952817 -8.259749 20.378747 -55.182194 0.203543 0.280112 -11.262191 -6.765190 1.091697 -74.133828 -27.872234 43.959168 -13.578027 4.810719 14.673227 -0.212233 -5.367698 4.193742 -3.969654 -5.148639 2.647729 -0.642227 -5.500580 0.143608 0.265864 0.000000 0.000000 0.000000 8.767234 -1.998739 0.374545 0.037835 12.027082 0.929959 -4.774382 -5.066689 -1.809766 0.000000 0.000000 -0.000000
